<svg width="40" height="41" viewBox="0 0 40 41" fill="none" xmlns="http://www.w3.org/2000/svg">
<path d="M38.4 0.812988H1.6C0.715 0.812988 0 1.52799 0 2.41299V39.213C0 40.098 0.715 40.813 1.6 40.813H38.4C39.285 40.813 40 40.098 40 39.213V2.41299C40 1.52799 39.285 0.812988 38.4 0.812988ZM33.78 12.488H30.585C28.08 12.488 27.595 13.678 27.595 15.428V19.283H33.575L32.795 25.318H27.595V40.813H21.36V25.323H16.145V19.283H21.36V14.833C21.36 9.66799 24.515 6.85299 29.125 6.85299C31.335 6.85299 33.23 7.01799 33.785 7.09299V12.488H33.78Z" fill="#191F82"/>
</svg>
