<svg width="40" height="40" viewBox="0 0 40 40" fill="none" xmlns="http://www.w3.org/2000/svg">
<path d="M20.0003 0.812988C8.95586 0.812988 0 9.76682 0 20.8129C0 29.6494 5.73062 37.1462 13.6772 39.7909C14.6766 39.976 15.0441 39.3569 15.0441 38.8287C15.0441 38.352 15.0253 36.7763 15.0169 35.1051C9.4525 36.3151 8.27844 32.7453 8.27844 32.7453C7.36898 30.4338 6.05781 29.8189 6.05781 29.8189C4.24328 28.5776 6.19492 28.6031 6.19492 28.6031C8.20273 28.7442 9.26039 30.6643 9.26039 30.6643C11.0445 33.7217 13.9391 32.8378 15.0809 32.3267C15.2601 31.0343 15.7782 30.1517 16.3506 29.6524C11.908 29.1468 7.23828 27.4317 7.23828 19.7683C7.23828 17.5848 8.01969 15.8006 9.29922 14.4C9.09156 13.8961 8.40648 11.8621 9.49266 9.10705C9.49266 9.10705 11.1726 8.56986 14.9942 11.1574C16.5894 10.7142 18.3003 10.492 20.0002 10.4842C21.6995 10.492 23.4118 10.7142 25.0102 11.1574C28.828 8.56979 30.5046 9.10705 30.5046 9.10705C31.5934 11.8621 30.9089 13.8961 30.7013 14.4C31.9834 15.8006 32.7597 17.5849 32.7597 19.7683C32.7597 27.4501 28.0809 29.1414 23.6273 29.6364C24.3446 30.2571 24.9837 31.4742 24.9837 33.34C24.9837 36.0161 24.9604 38.1699 24.9604 38.8286C24.9604 39.361 25.3206 39.9846 26.3343 39.7882C34.2766 37.1407 40 29.6466 40 20.8129C40 9.76682 31.0455 0.812988 20.0003 0.812988Z" fill="#191F82"/>
</svg>
