<svg width="163" height="34" viewBox="0 0 163 34" fill="none" xmlns="http://www.w3.org/2000/svg">
<path fill-rule="evenodd" clip-rule="evenodd" d="M8.82988 2.44779C2.67649 6.93431 -1.57029 16.5204 0.553938 24.2934C1.40049 27.3908 3.16159 30.0786 6.0244 31.7894C13.7124 36.3836 24.0074 32.8201 26.3998 24.483C28.6361 16.6898 24.3312 6.96932 18.326 2.60808C15.1857 0.327229 11.9658 0.161272 8.82988 2.44779ZM5.01087 17.6018V22.3495H6.41965C7.06157 22.3495 7.58356 22.128 7.98923 21.6847C8.3931 21.2432 8.59606 20.6717 8.59606 19.9718C8.59606 19.2739 8.3931 18.7042 7.98923 18.2629C7.58356 17.8215 7.06157 17.6018 6.41965 17.6018H5.01087ZM3.11866 23.9593V15.992H5.95524C6.76645 15.992 7.39552 16.0561 7.8418 16.1864C8.28808 16.3148 8.69941 16.5266 9.07345 16.824C9.55676 17.2072 9.92193 17.666 10.1709 18.1985C10.4199 18.7314 10.5434 19.3242 10.5434 19.9718C10.5434 20.6834 10.3923 21.3268 10.0899 21.9063C9.78735 22.4855 9.34852 22.9679 8.77678 23.3547C8.45223 23.5724 8.09438 23.726 7.70144 23.8194C7.30875 23.9126 6.72596 23.9593 5.95524 23.9593H3.11866ZM11.3294 23.9593V15.992H16.386V17.4618H13.2215V19.0833H16.2422V20.5648H13.2215V22.4662H16.4747V23.9593H11.3294ZM20.493 24.0292L17.0628 15.992H19.0879L20.9561 20.6231L22.9495 15.992H24.9968L21.312 24.0292H20.493Z" fill="#191F82"/>
<path d="M38.3574 26.0035V10.2244H42.0115V26.0035H38.3574ZM48.3818 16.0884V26.0035H44.8734V10.2244H47.9838L55.586 19.6311V10.2244H59.0949V26.0035H56.3163L48.3818 16.0884ZM74.289 24.6792C73.4376 25.2221 72.5658 25.6222 71.6732 25.888C70.7803 26.1497 69.8424 26.2809 68.8634 26.2809C67.7562 26.2809 66.7352 26.0923 65.8079 25.7184C64.877 25.3415 64.0642 24.787 63.3684 24.0591C62.6521 23.3004 62.1053 22.4109 61.7318 21.3984C61.3546 20.3819 61.1676 19.2922 61.1676 18.1256C61.1676 15.6728 61.9013 13.6976 63.3718 12.1958C64.8425 10.698 66.7837 9.94702 69.1953 9.94702C70.0609 9.94702 70.9047 10.051 71.725 10.2627C72.5489 10.4745 73.3616 10.7981 74.1645 11.2332V14.9375C73.3821 14.3712 72.5935 13.9477 71.8046 13.6706C71.0123 13.3894 70.2229 13.2509 69.4307 13.2509C68.0017 13.2509 66.8737 13.6822 66.0535 14.5485C65.2337 15.4148 64.822 16.6045 64.822 18.1256C64.822 19.6004 65.2129 20.7786 65.9985 21.6563C66.7801 22.538 67.8355 22.9769 69.161 22.9769C70.0119 22.9769 70.8666 22.8115 71.725 22.4765C72.5829 22.1417 73.4376 21.6449 74.289 20.9904V24.6792ZM89.6974 10.2244V19.2575C89.6974 21.4677 89.1092 23.1887 87.9293 24.4248C86.7492 25.661 85.1022 26.2809 82.9878 26.2809C80.8775 26.2809 79.2334 25.661 78.0535 24.4248C76.8739 23.1887 76.2857 21.4677 76.2857 19.2575V10.2244H79.8566V19.0998C79.8566 20.3551 80.1262 21.3138 80.6665 21.9797C81.2057 22.6458 81.9915 22.9769 83.0158 22.9769C84.0367 22.9769 84.815 22.6458 85.3482 21.9835C85.8805 21.3254 86.147 20.3626 86.147 19.0998V10.2244H89.6974ZM95.9673 23.1159H98.0229C98.9435 23.1159 99.5971 22.9731 99.9883 22.6885C100.379 22.3996 100.577 21.9261 100.577 21.2675C100.577 20.5898 100.369 20.0891 99.9538 19.7657C99.5385 19.4422 98.888 19.2809 98.0022 19.2809H95.9673V23.1159ZM97.8015 16.462C98.4416 16.462 98.9189 16.3274 99.2341 16.0539C99.5491 15.7845 99.7046 15.3764 99.7046 14.8258C99.7046 14.2173 99.5455 13.7627 99.2271 13.4665C98.9124 13.1699 98.4346 13.0196 97.8015 13.0196H95.9673V16.462H97.8015ZM92.3965 26.0035V10.2244H97.6283C99.4936 10.2244 100.902 10.563 101.85 11.2448C102.802 11.9261 103.276 12.9352 103.276 14.275C103.276 14.972 103.116 15.5843 102.795 16.1118C102.473 16.6393 102.002 17.0553 101.39 17.363C102.379 17.7096 103.12 18.2219 103.604 18.9032C104.092 19.5848 104.334 20.4436 104.334 21.4792C104.334 22.9926 103.867 24.1245 102.936 24.8753C102.006 25.6261 100.604 26.0035 98.7322 26.0035H92.3965ZM110.559 20.2278H114.747L112.76 14.2212L110.559 20.2278ZM104.622 26.0035L110.805 10.2244H114.899L120.421 26.0035H116.66L115.646 22.9309H109.535L108.4 26.0035H104.622ZM123.712 26.0035V13.1586H119.02V10.2244H132.141V13.1586H127.449V26.0035H123.712ZM136.626 18.1256C136.626 19.531 137.006 20.6899 137.764 21.5945C138.525 22.4997 139.494 22.9538 140.671 22.9538C141.851 22.9538 142.823 22.4997 143.584 21.5945C144.342 20.6899 144.723 19.531 144.723 18.1256C144.723 16.7123 144.342 15.5494 143.584 14.6408C142.823 13.7282 141.851 13.2738 140.671 13.2738C139.494 13.2738 138.525 13.7282 137.764 14.6408C137.006 15.5494 136.626 16.7123 136.626 18.1256ZM132.971 18.1256C132.971 16.9513 133.158 15.8689 133.529 14.8719C133.902 13.8746 134.456 12.9852 135.193 12.2035C135.909 11.4527 136.723 10.8903 137.632 10.5246C138.543 10.1549 139.553 9.97017 140.671 9.97017C141.799 9.97017 142.819 10.1549 143.733 10.5285C144.647 10.9021 145.46 11.4604 146.176 12.2035C146.906 12.9852 147.46 13.8746 147.833 14.8719C148.211 15.8689 148.397 16.9513 148.397 18.1256C148.397 19.2922 148.211 20.3703 147.833 21.3676C147.46 22.3651 146.906 23.2466 146.176 24.0128C145.453 24.7636 144.633 25.3299 143.716 25.7107C142.802 26.0923 141.785 26.2809 140.671 26.2809C139.56 26.2809 138.553 26.0923 137.643 25.7184C136.733 25.3415 135.916 24.7713 135.193 24.0128C134.463 23.2466 133.909 22.3651 133.536 21.3676C133.158 20.3703 132.971 19.2922 132.971 18.1256ZM155.813 16.693C156.47 16.693 156.958 16.5392 157.28 16.235C157.602 15.9307 157.761 15.4688 157.761 14.8449C157.761 14.2518 157.595 13.7977 157.259 13.4856C156.923 13.1737 156.442 13.0196 155.813 13.0196H154.107V16.693H155.813ZM150.557 26.0035V10.2244H155.792C157.716 10.2244 159.138 10.598 160.058 11.341C160.975 12.0841 161.436 13.2394 161.436 14.8024C161.436 15.6728 161.232 16.4198 160.826 17.0396C160.422 17.6594 159.803 18.1833 158.965 18.6106C159.318 18.7532 159.633 18.992 159.913 19.3267C160.194 19.6617 160.436 20.0852 160.646 20.5975L162.91 26.0035H158.906L157.1 21.4561C156.809 20.7321 156.477 20.2357 156.107 19.9661C155.733 19.6926 155.207 19.5578 154.522 19.5578C154.47 19.5578 154.398 19.5616 154.311 19.5693C154.221 19.577 154.155 19.5809 154.107 19.5809V26.0035H150.557Z" fill="#191F82"/>
</svg>
