<svg width="37" height="32" viewBox="0 0 37 32" fill="none" xmlns="http://www.w3.org/2000/svg">
<path d="M36.4719 0H18.2927L16.8713 20.8411L36.4719 19.4375V0Z" fill="#03232E"/>
<path d="M0 0V19.4375L18.1119 20.8411V0L0 0Z" fill="#07485E"/>
<path d="M24.3146 30.0213V25.4888L16.8713 24.0667L18.2894 30.0213H24.3146Z" fill="#87A0AF"/>
<path d="M12.1572 30.0213H18.1118V24.0667L12.1572 25.4888V30.0213Z" fill="#B4D2D7"/>
<path d="M27.5401 31.0137V29.0288H18.3108L17.6157 30.0212L18.3108 31.0137H27.5401Z" fill="#B4D2D7"/>
<path d="M8.93188 29.0288H18.1119V31.0137H8.93188V29.0288Z" fill="#E1EBF0"/>
<path d="M18.2927 19.6006L16.8713 22.5782L18.2927 25.5552H36.4719V19.6006H18.2927Z" fill="#B4D2D7"/>
<path d="M0 19.6006H18.1119V25.5552H0V19.6006Z" fill="#E1EBF0"/>
<path d="M21.5648 3.22534L23.0742 4.73481L20.6137 7.19508L19.1045 5.6859L21.5648 3.22534Z" fill="#FF4A4A"/>
<path d="M20.593 8.68384H24.0665V10.6687H20.593V8.68384Z" fill="#FF4A4A"/>
<path d="M12.5034 8.64941H15.9656V10.7734H12.5034V8.64941Z" fill="#FF9F22"/>
<path d="M14.93 3.24438L17.378 5.69246L15.876 7.19415L13.428 4.74608L14.93 3.24438Z" fill="#FF9F22"/>
<path d="M15.876 12.2283L17.378 13.73L14.93 16.178L13.428 14.6763L15.876 12.2283Z" fill="#FF9F22"/>
<path d="M20.6137 12.1572L23.0742 14.6177L21.5648 16.127L19.1045 13.6665L20.6137 12.1572Z" fill="#FF4A4A"/>
<path d="M18.2815 4.71411L16.8713 9.67629L18.2815 14.6385C20.1031 14.6385 21.5854 13.1579 21.5854 11.338V8.01481C21.5854 6.19468 20.1031 4.71411 18.2815 4.71411Z" fill="#FF9F22"/>
<path d="M14.8865 8.01481V11.338C14.8865 13.1579 16.3335 14.6385 18.1119 14.6385V4.71411C16.3335 4.71411 14.8865 6.19468 14.8865 8.01481Z" fill="#FFD422"/>
</svg>
