<svg width="36" height="36" viewBox="0 0 36 36" fill="none" xmlns="http://www.w3.org/2000/svg">
<path d="M32.3071 36.0001L22.1917 25.704L25.8844 21.9453L35.9999 32.2414L32.3071 36.0001Z" fill="#87A0AF"/>
<path d="M15.7111 0L14.3013 15.4458L15.7111 31.0685C24.3152 31.0685 31.315 24.1 31.315 15.5342C31.315 6.96881 24.3152 0 15.7111 0Z" fill="#B4D2D7"/>
<path d="M0 15.5342C0 24.1 7.07928 31.0685 15.7808 31.0685V0C7.07928 0 0 6.96881 0 15.5342Z" fill="#E1EBF0"/>
<path d="M15.7119 3.69873L14.3013 15.4459L15.7119 27.37C22.2763 27.37 27.6163 22.0608 27.6163 15.5343C27.6163 9.00821 22.2763 3.69873 15.7119 3.69873Z" fill="#212CBB"/>
<path d="M3.69873 15.5343C3.69873 22.0608 9.1187 27.37 15.7809 27.37V3.69873C9.1187 3.69873 3.69873 9.00821 3.69873 15.5343Z" fill="#005FE1"/>
<path d="M21.6799 10.8494L15.7482 16.7465L15.0413 18.9209L15.7482 19.7261L23.1782 12.339L21.6799 10.8494Z" fill="#EFE2DD"/>
<path d="M14.1665 18.418L9.87555 14.0547L8.38379 15.5718L14.1665 21.4519L15.781 19.81V16.776L14.1665 18.418Z" fill="#FFF5F5"/>
</svg>
