<svg width="40" height="36" viewBox="0 0 40 36" fill="none" xmlns="http://www.w3.org/2000/svg">
<path d="M19.9257 35.0685H40V10.0546L18.3562 8.49316L19.9257 35.0685Z" fill="#03232E"/>
<path d="M0 10.0546V35.0685H20V8.49316L0 10.0546Z" fill="#07485E"/>
<path d="M19.9257 0L18.3562 4.93151L19.9257 9.86301H40V0H19.9257Z" fill="#B4D2D7"/>
<path d="M0 0H20V9.86301H0V0Z" fill="#E1EBF0"/>
<path d="M3.56152 3.83569H6.02728V6.02747H3.56152V3.83569Z" fill="#FF4A4A"/>
<path d="M8.49316 3.83569H10.9589V6.02747H8.49316V3.83569Z" fill="#FFD422"/>
<path d="M13.6985 3.83569H16.1642V6.02747H13.6985V3.83569Z" fill="#00CC76"/>
<path d="M21.0959 18.9041H34.7946V21.0958H21.0959V18.9041Z" fill="#00CC76"/>
<path d="M4.93164 18.9041H18.6303V21.0958H4.93164V18.9041Z" fill="#00FF94"/>
<path d="M29.863 13.6987H34.7945V16.1645H29.863V13.6987Z" fill="#00CC76"/>
<path d="M34.7946 23.8357H19.9198L18.3562 27.5345L19.9198 31.233H34.7946V23.8357Z" fill="#EFE2DD"/>
<path d="M27.3972 13.6987H19.9563L19.178 14.9114L19.9563 16.1645H27.3972V13.6987Z" fill="#00CC76"/>
<path d="M4.93164 13.6987H9.86315V16.1645H4.93164V13.6987Z" fill="#00FF94"/>
<path d="M12.3289 13.6987H20.0001V16.1645H12.3289V13.6987Z" fill="#00FF94"/>
<path d="M11.1619 23.8357L9.58911 27.5345L11.1619 31.233H20.0001V23.8357H11.1619Z" fill="#FFF5F5"/>
<path d="M4.93164 23.8357H10.959V31.233H4.93164V23.8357Z" fill="#FFD422"/>
</svg>
