<svg width="40" height="41" viewBox="0 0 40 41" fill="none" xmlns="http://www.w3.org/2000/svg">
<path d="M36.25 0.812988H3.75C1.6875 0.812988 0 2.50049 0 4.56299V37.063C0 39.1255 1.6875 40.813 3.75 40.813H36.25C38.3125 40.813 40 39.1255 40 37.063V4.56299C40 2.50049 38.3125 0.812988 36.25 0.812988ZM32.3984 28.813L28.7422 28.8677C28.7422 28.8677 27.9531 29.0239 26.9219 28.313C25.5547 27.3755 24.2656 24.9302 23.2578 25.2505C22.2422 25.5708 22.2734 27.7661 22.2734 27.7661C22.2734 27.7661 22.2812 28.2349 22.0469 28.4849C21.7969 28.7583 21.2969 28.813 21.2969 28.813H19.6641C19.6641 28.813 16.0547 29.0317 12.875 25.7192C9.40625 22.1099 6.34375 14.9458 6.34375 14.9458C6.34375 14.9458 6.16406 14.4771 6.35938 14.2505C6.57812 13.9927 7.16406 13.9771 7.16406 13.9771L11.0781 13.9536C11.0781 13.9536 11.4453 14.0161 11.7109 14.2114C11.9297 14.3677 12.0469 14.6724 12.0469 14.6724C12.0469 14.6724 12.6797 16.2739 13.5156 17.7192C15.1484 20.5396 15.9141 21.1567 16.4688 20.8599C17.2734 20.4224 17.0312 16.8677 17.0312 16.8677C17.0312 16.8677 17.0469 15.5786 16.625 15.0083C16.2969 14.563 15.6797 14.4302 15.4141 14.3989C15.1953 14.3677 15.5547 13.8599 16.0234 13.6255C16.7266 13.2817 17.9688 13.2583 19.4375 13.2739C20.5781 13.2817 20.9141 13.3599 21.3594 13.4614C22.7109 13.7895 22.25 15.0474 22.25 18.063C22.25 19.0317 22.0781 20.3911 22.7734 20.8364C23.0703 21.0317 23.8047 20.8677 25.6406 17.7505C26.5078 16.2739 27.1641 14.5396 27.1641 14.5396C27.1641 14.5396 27.3047 14.2271 27.5234 14.0942C27.75 13.9614 28.0547 14.0005 28.0547 14.0005L32.1719 13.9771C32.1719 13.9771 33.4062 13.8286 33.6094 14.3911C33.8203 14.9771 33.1484 16.3442 31.4688 18.5864C28.7109 22.2661 28.3984 21.9224 30.6953 24.0474C32.8828 26.0786 33.3359 27.0708 33.4141 27.1958C34.3047 28.6958 32.3984 28.813 32.3984 28.813Z" fill="#191F82"/>
</svg>
